<?xml version="1.0" standalone="no"?>
<!DOCTYPE svg PUBLIC "-//W3C//DTD SVG 20010904//EN"
 "http://www.w3.org/TR/2001/REC-SVG-20010904/DTD/svg10.dtd">
<svg version="1.0" xmlns="http://www.w3.org/2000/svg"
 width="580.000000pt" height="387.000000pt" viewBox="0 0 580.000000 387.000000"
 preserveAspectRatio="xMidYMid meet">

<g transform="translate(0.000000,387.000000) scale(0.100000,-0.100000)"
fill="#000000" stroke="none">
<path d="M3365 2786 c-38 -12 -89 -29 -112 -38 -35 -15 -50 -16 -96 -6 -45 10
-82 8 -223 -11 -93 -12 -185 -24 -204 -27 -33 -6 -34 -5 -15 9 11 8 37 20 58
26 46 15 48 31 5 31 -44 0 -310 -55 -336 -69 -36 -19 -38 -12 -4 15 43 34 41
49 -5 25 -21 -10 -57 -24 -80 -31 -22 -7 -64 -30 -92 -51 -28 -22 -56 -39 -62
-39 -17 0 -107 -90 -136 -136 -25 -38 -32 -44 -64 -44 -23 0 -56 -13 -95 -36
-32 -20 -89 -51 -125 -69 -53 -27 -71 -42 -88 -76 -28 -52 -21 -85 24 -129 24
-23 35 -43 35 -62 0 -69 51 -129 122 -145 15 -3 30 -14 34 -25 17 -55 70 -120
128 -158 35 -22 67 -40 72 -40 7 0 8 18 4 48 -5 43 1 106 12 118 8 7 130 -51
163 -78 17 -13 51 -39 78 -57 51 -35 87 -92 87 -139 0 -24 -54 -129 -79 -155
-5 -5 -41 7 -80 26 -53 25 -74 31 -77 22 -10 -25 26 -87 86 -149 40 -42 60
-71 60 -87 0 -35 55 -119 78 -119 11 0 49 -16 86 -35 37 -19 76 -35 87 -35 30
0 185 65 242 102 29 18 78 54 109 81 31 26 64 47 73 47 17 0 138 -59 170 -83
19 -14 19 -16 3 -22 -10 -4 -18 -12 -18 -18 0 -17 130 0 220 29 47 16 116 49
159 77 42 28 99 63 126 80 60 35 213 159 272 219 l43 43 10 140 c5 77 10 211
10 297 l0 157 31 17 c17 8 40 14 50 11 11 -3 19 -2 19 2 0 20 -66 105 -133
170 -83 82 -161 137 -249 179 l-58 26 0 53 c0 63 -5 67 -133 112 -102 36 -99
36 -192 7z m25 -99 c-154 -88 -154 -89 -180 -164 -12 -37 -31 -85 -41 -105
-11 -21 -19 -49 -19 -64 0 -20 -4 -25 -16 -20 -13 5 -15 2 -10 -16 3 -13 6
-28 6 -34 0 -7 20 -40 44 -75 23 -35 45 -79 48 -98 5 -33 5 -33 -12 -11 -9 12
-43 70 -75 129 l-58 106 18 50 c10 27 28 65 41 85 49 72 19 81 -33 9 -18 -24
-54 -68 -80 -97 -78 -87 -79 -93 -45 -165 24 -52 56 -100 146 -217 27 -36
-116 97 -155 143 -24 29 -51 58 -61 65 -24 17 -23 31 7 98 28 62 27 82 -1 37
-31 -49 -47 -65 -55 -52 -4 7 -13 -11 -22 -40 -15 -50 -13 -71 9 -126 9 -23
-79 74 -96 105 -7 13 -9 46 -4 91 6 65 4 76 -21 130 -16 32 -32 59 -37 59 -11
0 -11 -3 12 -60 l20 -51 -38 -67 c-21 -37 -45 -78 -53 -92 -8 -14 -15 -27 -16
-28 -3 -7 -93 59 -93 68 0 5 11 25 24 44 13 20 29 58 36 86 9 39 16 50 32 50
13 0 18 6 16 18 -4 20 -82 61 -119 62 -15 0 -81 -27 -148 -60 -67 -33 -132
-60 -145 -60 -28 0 -86 19 -86 29 0 9 66 72 110 103 19 14 51 29 70 33 19 4
75 23 124 42 49 18 93 32 98 31 4 -2 -3 -20 -17 -40 -30 -44 -18 -58 28 -30
33 21 77 30 257 56 161 23 240 29 213 14 -29 -14 -30 -28 -2 -28 31 0 252 48
344 75 114 33 119 31 35 -18z m220 -71 c0 -36 -5 -68 -10 -71 -6 -4 -37 -46
-69 -93 -83 -124 -178 -237 -199 -237 -13 0 -18 -11 -22 -55 l-5 -55 -17 32
c-10 18 -18 49 -18 70 0 56 -17 76 -25 30 -4 -21 -12 -34 -17 -31 -7 5 -8 43
-4 108 11 158 12 166 27 180 15 14 113 45 167 53 44 7 40 19 -10 35 l-43 15
84 41 c55 28 97 42 122 42 l39 0 0 -64z m-1129 -193 c-32 -60 -110 -100 -150
-78 l-23 12 34 21 c44 27 119 61 136 62 9 0 10 -5 3 -17z m-318 -69 c18 -9 74
-43 124 -77 85 -55 94 -63 105 -104 l13 -45 90 -33 c126 -46 148 -55 143 -60
-2 -2 -40 10 -84 27 -206 80 -433 128 -469 98 -25 -21 -7 -30 58 -30 85 0 107
-7 104 -33 -1 -13 5 -23 16 -25 11 -2 17 3 17 13 0 14 7 16 43 11 96 -14 100
-16 182 -109 114 -128 151 -186 159 -246 8 -58 22 -74 32 -34 19 72 11 116
-35 188 -24 39 -55 83 -68 99 -13 16 -21 31 -18 34 8 9 52 -36 122 -125 64
-82 64 -83 57 -130 -4 -27 -13 -65 -20 -87 -8 -21 -14 -52 -14 -68 0 -25 36
-147 65 -220 5 -14 2 -18 -14 -18 -12 0 -21 -4 -21 -8 0 -16 56 -62 88 -73 18
-6 32 -14 32 -18 0 -17 -109 -85 -181 -113 -68 -26 -85 -29 -106 -19 -24 11
-24 13 -9 30 16 17 33 71 57 174 8 34 8 52 0 61 -6 7 -13 57 -17 112 -7 98 -7
99 13 82 28 -25 33 -23 33 15 0 37 -41 107 -86 148 -35 32 -212 156 -277 194
-43 24 -60 45 -39 45 5 0 41 -11 80 -24 40 -14 72 -21 72 -16 0 10 -174 94
-241 116 -67 22 -102 8 -37 -15 26 -9 49 -19 52 -22 3 -3 -6 -16 -20 -30 -24
-23 -32 -24 -142 -23 -147 1 -166 5 -182 45 -16 37 -4 66 65 161 26 34 42 64
36 66 -6 2 -32 -8 -58 -23 -41 -22 -51 -24 -70 -14 -13 7 -23 16 -23 20 0 4
25 19 55 34 31 14 75 38 99 53 35 23 56 28 115 30 50 1 82 -3 104 -14z m-111
-499 l-4 -55 -30 37 c-54 68 -55 73 -6 73 l43 0 -3 -55z m388 -488 c0 -31 -22
-36 -61 -16 -22 11 -39 22 -39 24 0 3 23 5 50 5 34 0 50 -4 50 -13z"/>
<path d="M2150 2223 c-14 -2 -40 -9 -57 -14 -40 -13 -45 -34 -5 -24 15 4 72
10 127 14 55 4 93 10 85 13 -21 9 -120 16 -150 11z"/>
</g>
</svg>
