<?xml version="1.0" standalone="no"?>
<!DOCTYPE svg PUBLIC "-//W3C//DTD SVG 20010904//EN"
 "http://www.w3.org/TR/2001/REC-SVG-20010904/DTD/svg10.dtd">
<svg version="1.0" xmlns="http://www.w3.org/2000/svg"
 width="839.000000pt" height="560.000000pt" viewBox="0 0 839.000000 560.000000"
 preserveAspectRatio="xMidYMid meet">

<g transform="translate(0.000000,560.000000) scale(0.100000,-0.100000)"
fill="#000000" stroke="none">
<path d="M51 5586 c-53 -30 -50 145 -51 -2783 0 -2090 3 -2728 12 -2748 7 -15
24 -33 39 -41 42 -21 8246 -21 8288 0 15 8 32 26 39 41 17 38 17 5452 0 5490
-7 15 -24 33 -39 41 -40 20 -8251 21 -8288 0z m335 -206 l58 -61 61 61 c33 33
63 60 66 60 3 0 6 -8 6 -17 0 -10 -29 -48 -65 -85 l-66 -68 -63 62 c-41 40
-63 71 -63 85 0 13 2 23 4 23 3 0 30 -27 62 -60z m166 -62 c55 56 103 102 105
102 1 0 3 -95 3 -212 l0 -212 -48 47 -49 48 -52 -60 c-29 -34 -58 -61 -64 -61
-6 0 -38 26 -70 58 l-58 57 -40 -42 -39 -42 0 212 0 212 105 -105 106 -105
101 103z"/>
<path d="M270 5208 c0 -120 0 -121 20 -103 16 14 20 31 20 78 0 59 0 60 20 42
15 -13 20 -31 20 -64 0 -43 4 -51 48 -94 l48 -47 47 48 c42 43 47 52 47 93 0
33 6 51 20 64 20 18 20 17 20 -42 0 -47 4 -64 20 -78 20 -18 20 -17 20 106 l0
124 -84 -84 c-97 -97 -88 -97 -189 8 -38 39 -71 71 -73 71 -2 0 -4 -55 -4
-122z"/>
</g>
</svg>
