<?xml version="1.0" encoding="UTF-8"?>
<!DOCTYPE svg PUBLIC "-//W3C//DTD SVG 1.1//EN" "http://www.w3.org/Graphics/SVG/1.1/DTD/svg11.dtd">
<svg xmlns="http://www.w3.org/2000/svg" version="1.1" width="540px" height="150px" style="shape-rendering:geometricPrecision; text-rendering:geometricPrecision; image-rendering:optimizeQuality; fill-rule:evenodd; clip-rule:evenodd" xmlns:xlink="http://www.w3.org/1999/xlink">
<g><path style="opacity:1" fill="#101010" d="M 7.5,116.5 C 10.6852,116.98 13.5185,116.314 16,114.5C 16.6667,87.1667 16.6667,59.8333 16,32.5C 13.5185,30.6863 10.6852,30.0196 7.5,30.5C 7.33375,23.825 7.50042,17.1583 8,10.5C 8.5,10 9,9.5 9.5,9C 182.833,8.5 356.166,8.33333 529.5,8.5C 529.667,52.1679 529.5,95.8346 529,139.5C 528.5,140 528,140.5 527.5,141C 355.167,141.667 182.833,141.667 10.5,141C 9.66667,140.167 8.83333,139.333 8,138.5C 7.50034,131.174 7.33368,123.841 7.5,116.5 Z"/></g>
<g><path style="opacity:1" fill="#fe0053" d="M 7.5,30.5 C 10.6852,30.0196 13.5185,30.6863 16,32.5C 16.6667,59.8333 16.6667,87.1667 16,114.5C 13.5185,116.314 10.6852,116.98 7.5,116.5C 7.5,87.8333 7.5,59.1667 7.5,30.5 Z"/></g>
<g><path style="opacity:1" fill="#f2f2f2" d="M 75.5,41.5 C 76.6291,43.6282 76.7958,45.9615 76,48.5C 70.652,54.015 65.152,59.3483 59.5,64.5C 52.6795,59.0231 47.0128,52.6897 42.5,45.5C 42.8333,44.5 43.1667,43.5 43.5,42.5C 48.8333,47.5 54.1667,52.5 59.5,57.5C 65.1877,52.479 70.521,47.1457 75.5,41.5 Z"/></g>
<g><path style="opacity:1" fill="#f5f5f5" d="M 87.5,44.5 C 87.8302,63.0076 87.4968,81.3409 86.5,99.5C 83.1877,95.521 79.521,91.8544 75.5,88.5C 69.848,93.6517 64.348,98.985 59,104.5C 53.9563,99.1208 48.623,94.1208 43,89.5C 39.0459,92.4511 35.3793,95.7844 32,99.5C 31.3333,81.1667 31.3333,62.8333 32,44.5C 41.0142,53.6811 50.1808,62.6811 59.5,71.5C 68.854,62.4786 78.1873,53.4786 87.5,44.5 Z"/></g>
<g><path style="opacity:1" fill="#434343" d="M 87.5,44.5 C 88.8276,63.0043 88.8276,81.671 87.5,100.5C 86.8933,100.376 86.56,100.043 86.5,99.5C 87.4968,81.3409 87.8302,63.0076 87.5,44.5 Z"/></g>
<g><path style="opacity:1" fill="#b4b4b4" d="M 36.5,56.5 C 36.1724,67.0135 36.5058,77.3468 37.5,87.5C 37.44,88.0431 37.1067,88.3764 36.5,88.5C 35.1765,77.6739 35.1765,67.0073 36.5,56.5 Z"/></g>
<g><path style="opacity:1" fill="#131313" d="M 36.5,56.5 C 43.2982,62.7973 49.9648,69.2973 56.5,76C 57.6086,76.6377 58.7753,77.1377 60,77.5C 67.6242,70.8774 74.9576,63.8774 82,56.5C 82.6667,66.8333 82.6667,77.1667 82,87.5C 80.6288,85.9586 79.1288,84.6253 77.5,83.5C 77.8275,78.456 77.4941,73.456 76.5,68.5C 75.8933,68.6236 75.56,68.9569 75.5,69.5C 72.0672,74.0624 70.5672,79.3958 71,85.5C 67,89.5 63,93.5 59,97.5C 55,93.5 51,89.5 47,85.5C 46.6667,81.1667 46.3333,76.8333 46,72.5C 44.6667,71.1667 43.3333,69.8333 42,68.5C 41.6667,73.5 41.3333,78.5 41,83.5C 39.6244,84.7051 38.4577,86.0384 37.5,87.5C 36.5058,77.3468 36.1724,67.0135 36.5,56.5 Z"/></g>
<g><path style="opacity:1" fill="#898989" d="M 75.5,69.5 C 75.56,68.9569 75.8933,68.6236 76.5,68.5C 77.4941,73.456 77.8275,78.456 77.5,83.5C 76.8333,78.8333 76.1667,74.1667 75.5,69.5 Z"/></g>
</svg>
